<?xml version="1.0" encoding="utf-8"?>
<!-- Generator: Adobe Illustrator 24.1.2, SVG Export Plug-In . SVG Version: 6.00 Build 0)  -->
<svg version="1.1" id="Warstwa_3" xmlns="http://www.w3.org/2000/svg" xmlns:xlink="http://www.w3.org/1999/xlink" x="0px" y="0px"
	 viewBox="0 0 430 430" style="enable-background:new 0 0 430 430;" xml:space="preserve">
<style type="text/css">
	.st0{fill:#ffc600;}
	.st1{fill:#ffc600;}
	.st2{fill:none;stroke:#ffc600;stroke-width:12.95;stroke-linecap:round;stroke-linejoin:round;stroke-miterlimit:14.8;}
	.st3{fill:none;}
</style>
<g>
	<path class="st0" d="M214.99,401.3c-102.73,0-186.3-83.57-186.3-186.3s83.57-186.3,186.3-186.3c3.48,0,6.3,2.82,6.3,6.3
		s-2.82,6.3-6.3,6.3c-95.78,0-173.7,77.92-173.7,173.7s77.92,173.7,173.7,173.7c91.54,0,167.69-71.5,173.36-162.79
		c0.21-3.47,3.21-6.11,6.68-5.9c3.47,0.22,6.11,3.21,5.9,6.68C394.85,324.6,313.17,401.3,214.99,401.3z"/>
	<path class="st1" d="M215.13,225.94c-1.67,0-3.28-0.66-4.46-1.85c-1.18-1.18-1.85-2.79-1.84-4.47l0.42-182.06
		c-0.34-0.78-0.53-1.64-0.53-2.54c0-3.48,2.82-6.3,6.3-6.3c102.73,0,186.3,83.57,186.3,186.3c0,0.61-0.01,1.21-0.02,1.82
		c-0.01,0.52-0.02,1.04-0.02,1.56c0,2.44-1.39,4.56-3.42,5.6c-1.13,1.11-2.69,1.8-4.4,1.8L215.13,225.94
		C215.13,225.94,215.13,225.94,215.13,225.94z M221.84,41.45l-0.39,171.88l167.26-0.13C387.75,120.54,313.86,45.03,221.84,41.45z"/>
</g>
</svg>
