<?xml version="1.0" encoding="utf-8"?>
<!-- Generator: Adobe Illustrator 25.0.1, SVG Export Plug-In . SVG Version: 6.00 Build 0)  -->
<svg version="1.1" id="Layer_1" xmlns="http://www.w3.org/2000/svg" xmlns:xlink="http://www.w3.org/1999/xlink" x="0px" y="0px"
	 viewBox="0 0 430 430" style="enable-background:new 0 0 430 430;" xml:space="preserve">
<style type="text/css">
	.st0{fill:#ffc600;}
	.st1{fill:none;stroke:#ffc600;stroke-width:12;stroke-linecap:round;stroke-linejoin:round;stroke-miterlimit:10;}
	.st2{fill:none;stroke:#ffc600;stroke-width:12;stroke-linecap:round;stroke-linejoin:round;stroke-miterlimit:10;}
	.st3{fill:#ffc600;}
	.st4{fill:none;stroke:#ffc600;stroke-width:12;stroke-linecap:round;stroke-linejoin:round;stroke-miterlimit:10;}
</style>
<g>
	<path class="st0" d="M304.99,228.69h-1.09c-5.89,0-11.65-1-17.12-2.98c-3.12-1.12-4.73-4.56-3.61-7.68
		c1.12-3.12,4.57-4.73,7.68-3.61c4.16,1.5,8.55,2.26,13.04,2.26h1.09c7,0,13.85-1.89,19.81-5.47c3.36-2.01,6.38-4.52,8.97-7.44
		c6.33-7.07,9.8-16.18,9.8-25.67v-24.46c0-3.31,2.69-6,6-6s6,2.69,6,6v24.46c0,12.44-4.56,24.4-12.84,33.65
		c-3.39,3.82-7.35,7.11-11.76,9.75C323.16,226.21,314.17,228.69,304.99,228.69z"/>
	<path class="st1" d="M327.89,230.49"/>
	<path class="st1" d="M249.16,157.87"/>
	<path class="st0" d="M349.57,163.93c-1.06,0-2.12-0.28-3.07-0.85c-1.94-1.15-3.06-3.29-2.92-5.54c0-0.07,0.02-0.51,0.01-1.23
		c0-0.04,0-0.07,0-0.11l-0.01-0.2c0-0.03,0-0.11-0.01-0.13c-0.18-4.87-1.72-17.33-12.18-27.94c-2-2.03-4.24-3.91-6.71-5.61
		c-4.71,8.84-16.06,24.04-41.43,34.65c-3.06,1.28-6.57-0.16-7.85-3.22c-1.28-3.06,0.16-6.57,3.22-7.85
		c31.21-13.05,37.26-33,37.5-33.84c0.47-1.76,1.71-3.18,3.38-3.91s3.57-0.64,5.18,0.2c5.84,3.05,10.98,6.8,15.26,11.16
		c2.78,2.82,5.06,5.74,6.94,8.65c-0.21-3.33-0.41-6.74-0.52-10.23c-0.1-3.31,2.5-6.08,5.81-6.18c3.28-0.11,6.08,2.5,6.18,5.81
		c0.13,4.37,0.42,8.7,0.7,12.89c0.79,11.86,1.42,21.23-1.59,27.25c-1.1,2.24-2.7,4.04-4.72,5.31
		C351.79,163.63,350.68,163.93,349.57,163.93z"/>
	<path class="st1" d="M349.57,155.94"/>
	<path class="st0" d="M327.89,236.42c-0.08,0-0.16,0-0.24,0c-3.22-0.13-5.76-2.77-5.76-6l0.01-14.06c0-3.31,2.69-6,6-6c0,0,0,0,0,0
		c3.31,0,6,2.69,6,6v13.76c0,0.25-0.01,0.51-0.03,0.77C333.62,234.03,331,236.42,327.89,236.42z"/>
	<path class="st0" d="M327.89,236.49c-0.71,0-1.42-0.12-2.11-0.38c-2.34-0.88-3.89-3.12-3.89-5.62c0-2.81,1.95-5.28,4.7-5.89
		c2.75-0.61,5.55,0.74,6.74,3.29c0.37,0.79,0.57,1.69,0.57,2.57c0,1.45-0.53,2.9-1.49,3.99
		C331.24,235.77,329.58,236.49,327.89,236.49z M323.37,226.54l4.47,3.91L323.37,226.54z"/>
	<path class="st0" d="M309.03,269.07h-4c-3.31,0-6-2.69-6-6s2.69-6,6-6h4c13.51,0,25.17-8.33,29.71-20.52
		c-0.83-0.04-1.67-0.06-2.5-0.06h-8.35c-3.31,0-6-2.69-6-6s2.69-6,6-6h8.35c3.73,0,7.46,0.33,11.09,0.97
		c3.22,0.57,5.39,3.62,4.87,6.86C348.79,253.62,330.63,269.07,309.03,269.07z"/>
	<path class="st0" d="M322.9,340.16h-20.06c-3.31,0-6-2.69-6-6s2.69-6,6-6h19.96c0.11-0.01,0.23-0.01,0.34-0.01
		c4.49,0,7.27-1.41,11.48-3.54c6.11-3.1,14.48-7.33,31.49-8.67c3.28-0.26,6.19,2.21,6.45,5.51s-2.21,6.19-5.51,6.45
		c-14.64,1.15-21.21,4.48-27,7.41c-4.86,2.46-9.45,4.79-16.68,4.83C323.22,340.16,323.07,340.16,322.9,340.16z M322.62,328.18
		c-0.07,0-0.13,0.01-0.2,0.02C322.48,328.19,322.55,328.18,322.62,328.18z"/>
	<path class="st0" d="M369.96,247.44c-0.13,0-0.26,0-0.39-0.01c-3.31-0.21-5.82-3.06-5.6-6.37c0.39-6.15,0.52-12.88,0.37-19.99
		c-0.43-20.17-3.11-43.51-8.17-71.34l-0.21-1.12c-2.19-11.91-5.08-21.06-8.85-27.99c-1.18-2.18-2.46-4.17-3.82-5.93
		c-0.78-1.02-1.62-2-2.5-2.92c-7.55-7.92-18.35-11.67-34-11.8c-13.31,0-23.96,4.61-32.51,14.09c-2.22,2.46-6.01,2.66-8.47,0.44
		s-2.66-6.01-0.44-8.47c10.8-11.98,24.75-18.05,41.47-18.05c18.91,0.15,32.84,5.23,42.64,15.52c1.18,1.24,2.3,2.54,3.33,3.89
		c1.74,2.26,3.38,4.8,4.86,7.53c4.38,8.05,7.68,18.37,10.1,31.53l0.21,1.15c5.18,28.47,7.92,52.42,8.37,73.24
		c0.16,7.45,0.03,14.52-0.39,21.01C375.73,245,373.09,247.44,369.96,247.44z"/>
	<path class="st0" d="M322.9,340.16h-20.06c-3.31,0-6-2.69-6-6s2.69-6,6-6h19.96c0.11-0.01,0.23-0.01,0.34-0.01
		c4.49,0,7.27-1.41,11.48-3.54c6.1-3.09,14.45-7.32,31.38-8.66c0.34-0.04,0.68-0.05,1.02-0.03h15.38c0.66,0,1.32-0.13,1.95-0.39
		c1.95-0.79,3.21-2.67,3.21-4.77v-22.95c0-10.41-3.09-20.42-8.95-28.97c-3.32-4.86-7.42-9.08-12.19-12.55
		c-6.27-4.56-13.59-7.67-21.18-9.01c-3.26-0.58-5.44-3.69-4.87-6.95c0.58-3.26,3.69-5.44,6.95-4.87c9.38,1.65,18.42,5.5,26.16,11.13
		c5.88,4.29,10.94,9.49,15.03,15.48c7.23,10.55,11.05,22.91,11.05,35.75v22.95c0,7.01-4.2,13.25-10.69,15.89
		c-2.07,0.84-4.25,1.27-6.47,1.27h-15.58c-14.48,1.17-21.01,4.47-26.77,7.39c-4.86,2.46-9.45,4.79-16.68,4.83
		C323.22,340.16,323.07,340.16,322.9,340.16z M322.61,328.18c-0.06,0-0.13,0.01-0.2,0.02C322.48,328.19,322.55,328.18,322.61,328.18
		z"/>
</g>
<path class="st2" d="M302.23,334.18"/>
<path class="st2" d="M305.03,263.08"/>
<path class="st2" d="M288.83,220.08"/>
<path class="st2" d="M280.94,149.45"/>
<path class="st2" d="M269.81,110.02"/>
<path class="st0" d="M125.47,229.19h-1.09c-9.66,0-19.06-2.73-27.17-7.89c-14.72-9.37-23.51-25.37-23.51-42.79v-21.9
	c0-3.31,2.69-6.01,6-6.01s6,2.68,6,6v21.91c0,13.3,6.71,25.51,17.95,32.67c6.18,3.93,13.35,6.01,20.73,6.01h1.09
	c7.03,0,13.89-1.9,19.86-5.48c0.07-0.05,0.19-0.11,0.3-0.19c2.76-1.84,6.48-1.09,8.32,1.66s1.09,6.48-1.66,8.32
	c-0.25,0.16-0.49,0.32-0.73,0.46C143.68,226.7,134.68,229.19,125.47,229.19z"/>
<path class="st1" d="M100.43,216.24"/>
<path class="st1" d="M148.42,231.01"/>
<path class="st1" d="M69.52,158.23"/>
<path class="st0" d="M76.86,165.22c-1.38,0-2.73-0.48-3.81-1.37c-1.4-1.16-2.21-2.89-2.19-4.71c0.01-0.89,0.3-22.03,3.35-33.16
	c0.02-0.08,0.05-0.17,0.07-0.25c0.68-2.4,1.43-4.19,2.35-5.64c1.78-2.79,5.49-3.62,8.28-1.83c2.79,1.78,3.62,5.49,1.83,8.28
	c-0.1,0.15-0.45,0.79-0.94,2.51c-0.03,0.1-0.06,0.2-0.09,0.31c-1.56,5.88-2.29,15.49-2.61,22.24
	c45.67-11.99,53.43-38.95,53.51-39.23c0.47-1.76,1.72-3.2,3.38-3.93c1.66-0.73,3.57-0.67,5.18,0.17c5.84,3.04,10.98,6.8,15.3,11.18
	c2.05,2.08,3.92,4.3,5.56,6.6c1.92,2.7,1.29,6.45-1.41,8.37c-2.7,1.92-6.45,1.29-8.37-1.41c-1.27-1.78-2.73-3.51-4.33-5.14
	c-2.01-2.04-4.26-3.92-6.73-5.62c-5.92,11.15-22.36,32.4-64.18,41.87c-0.97,0.22-1.95,0.42-2.94,0.63
	C77.68,165.18,77.27,165.22,76.86,165.22z"/>
<path class="st1" d="M79.71,156.61"/>
<path class="st0" d="M83.15,238.02h-0.02c-3.31,0-6-2.69-6-6s2.69-6,6-6s6.01,2.69,6.01,6S86.46,238.02,83.15,238.02z"/>
<path class="st0" d="M100.43,236.94c-3.11,0-5.73-2.39-5.98-5.53c-0.02-0.26-0.03-0.51-0.03-0.77v-14.41c0-3.31,2.69-6,6-6
	c0,0,0,0,0,0c3.31,0,6,2.68,6,6l0.01,14.7c0,3.22-2.54,5.87-5.76,6C100.6,236.94,100.51,236.94,100.43,236.94z M103.84,230.67
	l2.59,0.02c0-0.01,0-0.03,0-0.04L103.84,230.67z"/>
<path class="st0" d="M148.41,237.01c-0.77,0-1.55-0.15-2.29-0.46c-2.24-0.93-3.7-3.12-3.7-5.54c0-2.78,1.91-5.23,4.62-5.87
	c2.71-0.64,5.5,0.63,6.75,3.12c0.42,0.83,0.64,1.78,0.64,2.71c0,1.59-0.64,3.16-1.77,4.28C151.51,236.4,149.98,237.01,148.41,237.01
	z M144.17,226.77l4.2,4.2L144.17,226.77z"/>
<path class="st0" d="M148.65,237.01h-0.23c-3.31,0-6-2.69-6-6s2.68-6,6-6h0.24c3.31,0,6,2.69,6,6S151.96,237.01,148.65,237.01z"/>
<path class="st0" d="M143.42,340.9h-37.99c-7.36,0-12-2.35-16.91-4.84c-5.79-2.94-12.35-6.26-26.96-7.43H47.62
	c-4.58,0-8.89-1.78-12.14-5.02c-3.25-3.25-5.04-7.57-5.04-12.16v-23c0-22.3,11.38-42.56,30.43-54.19
	c6.51-3.98,13.62-6.72,21.12-8.14c1.59-0.3,3.23,0.05,4.56,0.98c1.33,0.93,2.22,2.35,2.48,3.95c2.52,15.42,15.73,26.62,31.39,26.62
	h7.26c3.31,0,6,2.69,6,6s-2.69,6-6,6h-7.26c-19.38,0-36.02-12.45-41.72-30.38c-4.06,1.25-7.93,3-11.58,5.22
	c-15.46,9.44-24.69,25.87-24.69,43.95v23c0,1.39,0.54,2.69,1.51,3.67c0.98,0.97,2.28,1.51,3.67,1.51H61.8
	c0.15,0,0.31,0.01,0.46,0.02c17.14,1.33,25.55,5.59,31.68,8.71c4.21,2.13,6.99,3.54,11.48,3.54h37.89c0.37-0.02,0.75-0.01,1.1-0.03
	c0.1-0.01,0.21-0.01,0.31-0.01c0.04,0,0.09,0,0.14-0.01c0.14,0,0.27-0.02,0.4-0.03l0.11-0.01c0.1-0.01,0.22-0.02,0.35-0.03
	c0.14-0.01,0.28-0.03,0.41-0.05c0.13-0.03,0.27-0.05,0.41-0.06l0.16-0.02c0.09-0.01,0.18-0.03,0.27-0.05c0.02,0,0.05-0.01,0.07-0.02
	c0.28-0.08,0.57-0.14,0.85-0.17c2.84-0.48,5.7,1.16,6.66,3.98c1.07,3.14-0.6,6.55-3.74,7.62c-0.31,0.11-0.64,0.19-0.96,0.25
	c-0.17,0.04-0.32,0.07-0.43,0.09c-0.35,0.07-0.71,0.14-1.08,0.19c-0.04,0.01-0.08,0.01-0.12,0.02h0c-0.17,0.03-0.31,0.05-0.41,0.06
	c-0.33,0.05-0.67,0.08-1.01,0.12c-0.06,0.01-0.12,0.01-0.19,0.02c-0.08,0.01-0.15,0.02-0.22,0.02l-0.21,0.02
	c-0.26,0.02-0.52,0.04-0.79,0.05c-0.16,0.01-0.32,0.02-0.48,0.02c-0.34,0.02-0.68,0.03-1.03,0.03
	C143.74,340.9,143.59,340.9,143.42,340.9z M146.2,340.77C146.2,340.77,146.2,340.77,146.2,340.77S146.2,340.77,146.2,340.77z
	 M143.14,328.92c-0.06,0-0.13,0.01-0.2,0.02C143,328.93,143.07,328.92,143.14,328.92z M144.55,328.88
	C144.54,328.88,144.54,328.88,144.55,328.88C144.54,328.88,144.54,328.88,144.55,328.88z M144.55,328.88
	C144.55,328.88,144.55,328.88,144.55,328.88C144.55,328.88,144.55,328.88,144.55,328.88z M146.56,328.74
	C146.56,328.74,146.56,328.74,146.56,328.74C146.56,328.74,146.56,328.74,146.56,328.74z M146.57,328.74
	C146.57,328.74,146.57,328.74,146.57,328.74C146.57,328.74,146.57,328.74,146.57,328.74z M146.96,328.65
	C146.96,328.65,146.95,328.65,146.96,328.65C146.95,328.65,146.96,328.65,146.96,328.65z M147.54,328.49
	C147.54,328.49,147.53,328.49,147.54,328.49C147.53,328.49,147.54,328.49,147.54,328.49z M147.55,328.49
	C147.54,328.49,147.54,328.49,147.55,328.49C147.54,328.49,147.54,328.49,147.55,328.49z"/>
<path class="st0" d="M64,245.38c-3.19,0-5.85-2.51-5.99-5.73c-0.68-15.36-0.03-29.99,2.23-50.48c1.37-27.53,6.21-49.81,14.38-66.24
	c0.01-0.01,0.01-0.03,0.02-0.04c11.31-22.7,29.52-34.69,52.66-34.69c18.94,0.15,32.9,5.24,42.72,15.55c1.13,1.18,2.26,2.5,3.34,3.9
	c0.26,0.34,0.5,0.66,0.73,0.99c1.89,2.72,1.21,6.46-1.51,8.35c-2.72,1.89-6.46,1.21-8.35-1.51c-0.13-0.19-0.27-0.37-0.41-0.55
	c-0.79-1.03-1.62-2-2.47-2.88c-7.59-7.97-18.42-11.73-34.1-11.85c-18.71,0-32.41,9.14-41.82,27.94c-0.03,0.07-0.07,0.14-0.11,0.21
	c-7.43,14.97-11.84,35.7-13.12,61.61c-0.01,0.12-0.02,0.24-0.03,0.37c-2.21,19.93-2.84,34.07-2.19,48.81
	c0.15,3.31-2.42,6.11-5.73,6.26C64.18,245.38,64.08,245.38,64,245.38z"/>
<path class="st0" d="M143.42,340.9h-37.99c-7.36,0-12-2.35-16.91-4.84c-5.79-2.94-12.35-6.26-26.96-7.43H47.62
	c-4.58,0-8.89-1.78-12.14-5.02c-3.25-3.25-5.04-7.57-5.04-12.16v-23c0-22.3,11.38-42.56,30.43-54.19
	c6.51-3.98,13.62-6.72,21.12-8.14c0.07-0.01,0.15-0.03,0.22-0.04c3.81-0.71,7.73-1.07,11.66-1.07h5.65
	c1.06-0.16,2.17-0.04,3.21,0.39c2.24,0.93,3.7,3.12,3.7,5.54c0,0.01,0,0.02,0,0.04c0.01,1.55-0.58,3.09-1.76,4.27
	c-1.13,1.13-2.61,1.72-4.09,1.76c-0.05,0-0.1,0-0.15,0h-6.56c-3.25,0-6.49,0.3-9.62,0.9c-0.06,0.01-0.13,0.02-0.19,0.03
	c-6.02,1.17-11.71,3.37-16.94,6.56c-15.46,9.44-24.69,25.87-24.69,43.95v23c0,1.39,0.54,2.69,1.51,3.67
	c0.98,0.97,2.28,1.51,3.67,1.51H61.8c0.15,0,0.31,0.01,0.46,0.02c17.14,1.33,25.55,5.59,31.68,8.71c4.21,2.13,6.99,3.54,11.48,3.54
	h37.89c0.37-0.02,0.75-0.01,1.1-0.03c0.1-0.01,0.21-0.01,0.31-0.01c0.04,0,0.09,0,0.14-0.01c0.14,0,0.27-0.02,0.4-0.03l0.11-0.01
	c0.1-0.01,0.22-0.02,0.35-0.03c0.14-0.01,0.28-0.03,0.41-0.05c0.13-0.03,0.27-0.05,0.41-0.06l0.16-0.02
	c0.09-0.01,0.18-0.03,0.27-0.05c0.07-0.01,0.13-0.03,0.2-0.04c0.1-0.02,0.19-0.04,0.29-0.06c0,0,0,0,0,0
	c3.22-0.79,6.47,1.19,7.25,4.41c0.76,3.12-1.06,6.25-4.1,7.17c-0.15,0.05-0.3,0.09-0.44,0.12c-0.15,0.04-0.31,0.07-0.47,0.09
	c-0.01,0-0.01,0-0.02,0c-0.1,0.02-0.19,0.04-0.26,0.05c-0.35,0.07-0.71,0.14-1.08,0.19c-0.04,0.01-0.08,0.01-0.12,0.02h0
	c-0.17,0.03-0.31,0.05-0.41,0.06c-0.33,0.05-0.67,0.08-1.01,0.12c-0.06,0.01-0.12,0.01-0.19,0.02c-0.08,0.01-0.15,0.02-0.22,0.02
	l-0.21,0.02c-0.26,0.02-0.52,0.04-0.79,0.05c-0.16,0.01-0.32,0.02-0.48,0.02c-0.34,0.02-0.68,0.03-1.03,0.03
	C143.74,340.9,143.59,340.9,143.42,340.9z M146.2,340.77C146.2,340.77,146.2,340.77,146.2,340.77S146.2,340.77,146.2,340.77z
	 M143.13,328.92c-0.06,0-0.13,0.01-0.2,0.02C143,328.93,143.07,328.92,143.13,328.92z M144.55,328.88
	C144.54,328.88,144.54,328.88,144.55,328.88C144.54,328.88,144.54,328.88,144.55,328.88z M144.56,328.88
	C144.55,328.88,144.55,328.88,144.56,328.88C144.55,328.88,144.55,328.88,144.56,328.88z M146.56,328.74
	C146.56,328.74,146.56,328.74,146.56,328.74C146.56,328.74,146.56,328.74,146.56,328.74z M146.57,328.73
	C146.57,328.73,146.57,328.74,146.57,328.73C146.57,328.74,146.57,328.73,146.57,328.73z M147.04,328.61
	C147.04,328.61,147.04,328.61,147.04,328.61C147.04,328.61,147.04,328.61,147.04,328.61z"/>
<g>
	<path class="st3" d="M216.69,230.54h-1.2c-10.53,0-20.77-2.97-29.63-8.6c-16.05-10.22-25.63-27.66-25.63-46.66v-24.15
		c0-3.31,2.69-6,6-6s6,2.68,6,6v24.16c0,14.87,7.5,28.53,20.07,36.53c6.92,4.4,14.94,6.73,23.19,6.73h1.2
		c7.86,0,15.54-2.12,22.21-6.13c3.76-2.26,7.15-5.06,10.06-8.34c7.09-7.93,10.98-18.15,10.98-28.78v-27.03c0-3.31,2.69-6,6-6
		s6,2.69,6,6v27.03c0,13.59-4.98,26.64-14.02,36.76c-3.71,4.18-8.04,7.77-12.85,10.65C236.55,227.82,226.73,230.54,216.69,230.54z"
		/>
	<path class="st2" d="M189.08,216.87"/>
	<path class="st2" d="M241.99,233.16"/>
	<path class="st4" d="M155,152.91"/>
	<path class="st3" d="M163.1,157.8c-1.38,0-2.73-0.48-3.81-1.37c-1.4-1.16-2.21-2.89-2.19-4.7c0.01-0.98,0.33-24.03,3.63-36.26
		c0.65-2.62,3.01-4.57,5.83-4.57c3.31,0,6,2.67,6,5.98v0.03c0,0.54-0.07,1.07-0.21,1.59c-1.85,6.74-2.66,18.13-3,25.7
		c50.87-13.06,59.88-42.65,60.25-43.94c0.5-1.73,1.75-3.17,3.41-3.89c1.66-0.71,3.55-0.66,5.15,0.17c6.37,3.32,11.99,7.43,16.7,12.2
		c3.65,3.7,6.52,7.56,8.79,11.39c-0.24-3.57-0.47-7.41-0.59-11.37c-0.1-3.31,2.51-6.08,5.82-6.18c3.32-0.12,6.08,2.51,6.18,5.82
		c0.15,5.01,0.48,9.73,0.8,14.29c0.83,11.8,1.49,21.12-1.74,27.55c-1.14,2.33-2.81,4.23-4.94,5.58c-1.9,1.21-4.32,1.25-6.26,0.11
		c-1.94-1.14-3.08-3.28-2.95-5.53c0-0.08,0.02-0.59,0.01-1.46c0-0.03,0-0.07,0-0.1c0-0.09-0.01-0.18-0.01-0.29c0-0.02,0-0.09,0-0.11
		c-0.2-5.45-1.92-19.41-13.64-31.3c-2.4-2.43-5.11-4.66-8.08-6.66c-6.18,11.99-23.98,35.88-70.68,46.46
		c-1.04,0.24-2.13,0.47-3.24,0.7C163.92,157.76,163.51,157.8,163.1,157.8z"/>
	<path class="st4" d="M166.23,151.12"/>
	<path class="st4" d="M265.95,150.77"/>
	<path class="st3" d="M241.99,239.08c-0.08,0-0.16,0-0.25,0c-3.22-0.13-5.76-2.78-5.76-6l0.01-15.54c0-3.31,2.69-6,6-6c0,0,0,0,0,0
		c3.31,0,6,2.69,6,6v15.21c0,0.27-0.01,0.54-0.03,0.81C247.71,236.69,245.1,239.08,241.99,239.08z"/>
	<path class="st3" d="M170.02,240.27H170c-3.31,0-6-2.69-6-6s2.69-6,6-6s6.01,2.69,6.01,6S173.34,240.27,170.02,240.27z"/>
	<path class="st3" d="M189.09,239.08c-3.12,0-5.74-2.4-5.98-5.54c-0.02-0.26-0.03-0.52-0.03-0.78v-15.88c0-3.31,2.69-6,6-6
		c0,0,0,0,0,0c3.31,0,6,2.68,6,6l0.01,16.21c0,3.22-2.55,5.87-5.77,6C189.24,239.08,189.17,239.08,189.09,239.08z M195.08,232.81
		h0.01H195.08z"/>
	<path class="st3" d="M241.99,239.16c-0.83,0-1.67-0.17-2.46-0.53c-2.16-0.97-3.54-3.11-3.54-5.47c0-2.78,1.91-5.24,4.62-5.88
		c2.71-0.64,5.5,0.63,6.75,3.12c0.42,0.83,0.64,1.79,0.64,2.72c0,1.71-0.74,3.39-2.02,4.53
		C244.86,238.64,243.43,239.16,241.99,239.16z M238,228.67l3.94,4.43L238,228.67z"/>
	<path class="st3" d="M236.74,353.7h-42.15c-7.97,0-13.01-2.56-18.36-5.27c-6.14-3.12-13.11-6.65-27.98-8.08
		c-0.09-0.01-0.17-0.02-0.25-0.03c-0.57-0.06-1.15-0.1-1.75-0.15h-15.4c-4.89,0-9.49-1.9-12.95-5.35
		c-3.47-3.47-5.38-8.08-5.38-12.97v-25.36c0-12.72,3.47-25.16,10.04-35.95c5.72-9.44,13.76-17.49,23.23-23.27
		c5.89-3.6,12.25-6.28,18.91-7.97c1.51-0.38,2.88-0.69,4.2-0.93c1.75-0.33,3.56,0.14,4.93,1.28c1.16,0.96,1.9,2.31,2.11,3.78
		c2.87,17.14,17.57,29.64,35,29.73h10.21c15.5,0,28.82-9.74,33.71-23.89c-1.22-0.08-2.43-0.12-3.64-0.12h-9.23c-3.31,0-6-2.69-6-6
		s2.69-6,6-6h9.23c4.03,0,8.11,0.36,12.12,1.06c3.23,0.57,5.41,3.62,4.89,6.86c-3.72,23.23-23.52,40.09-47.08,40.09h-10.24
		c-21.2-0.11-39.36-13.93-45.37-33.65c-4.72,1.4-9.25,3.41-13.49,6c-7.84,4.79-14.49,11.44-19.23,19.26
		c-5.43,8.92-8.3,19.2-8.3,29.72v25.36c0,1.69,0.66,3.28,1.85,4.48c1.19,1.18,2.78,1.84,4.48,1.84h15.64c0.16,0,0.32,0.01,0.48,0.02
		c0.76,0.06,1.51,0.12,2.23,0.19c0.08,0.01,0.15,0.01,0.23,0.02c17.11,1.65,25.85,6.08,32.23,9.32c4.72,2.39,7.83,3.97,12.93,3.97
		h42.15c5.12,0,8.24-1.58,12.97-3.98c6.71-3.4,15.89-8.06,34.56-9.53c3.3-0.26,6.19,2.21,6.45,5.51c0.26,3.3-2.21,6.19-5.51,6.45
		c-16.31,1.29-23.63,5-30.08,8.27C249.78,351.14,244.72,353.7,236.74,353.7z"/>
	<path class="st3" d="M288.47,251.26c-0.13,0-0.26,0-0.39-0.01c-3.31-0.21-5.81-3.07-5.6-6.38c0.44-6.84,0.58-14.28,0.41-22.13
		c-0.49-22.35-3.45-48.17-9.05-78.93l-0.23-1.27c-2.42-13.19-5.64-23.36-9.84-31.09c-1.32-2.43-2.76-4.66-4.28-6.63
		c-0.9-1.18-1.84-2.28-2.8-3.27c-8.48-8.9-20.56-13.11-38.03-13.24c-20.9,0-36.18,10.19-46.67,31.14c-0.02,0.05-0.05,0.1-0.07,0.15
		l0,0c-8.26,16.57-13.16,39.54-14.57,68.26c-0.01,0.12-0.02,0.24-0.03,0.37c-2.44,21.99-3.14,37.61-2.42,53.92
		c0.15,3.31-2.42,6.11-5.73,6.26c-3.31,0.14-6.11-2.42-6.26-5.73c-0.75-16.92-0.04-33.04,2.46-55.59
		c1.5-30.21,6.79-54.65,15.72-72.67c0.03-0.07,0.06-0.13,0.09-0.2c12.54-25.15,31.9-37.91,57.52-37.91
		c20.7,0.16,35.95,5.71,46.66,16.95c1.24,1.3,2.47,2.73,3.63,4.24c1.9,2.47,3.69,5.24,5.32,8.22c4.81,8.86,8.44,20.2,11.1,34.67
		l0.23,1.3c5.71,31.35,8.73,57.79,9.23,80.79c0.17,8.2,0.03,15.99-0.44,23.17C294.25,248.82,291.61,251.26,288.47,251.26z"/>
	<path class="st3" d="M236.74,353.7h-42.15c-7.97,0-13.01-2.56-18.36-5.27c-6.14-3.12-13.11-6.65-27.98-8.08
		c-0.09-0.01-0.17-0.02-0.26-0.03c-0.57-0.06-1.15-0.1-1.75-0.15h-15.4c-4.89,0-9.49-1.9-12.95-5.35
		c-3.47-3.47-5.38-8.08-5.38-12.97v-25.36c0-12.72,3.47-25.16,10.04-35.95c5.72-9.44,13.76-17.49,23.23-23.27
		c5.89-3.6,12.25-6.28,18.91-7.97c1.51-0.38,2.88-0.69,4.2-0.93c0.06-0.01,0.13-0.02,0.19-0.03c1.42-0.27,2.83-0.48,4.2-0.65
		c2.73-0.35,5.63-0.53,8.57-0.53h6.31c1.06-0.16,2.17-0.04,3.21,0.39c2.24,0.93,3.7,3.12,3.7,5.54c0,0.01,0,0.01,0,0.02
		c0.01,0.79-0.14,1.59-0.46,2.34c-0.93,2.24-3.12,3.7-5.54,3.7h-7.23c-2.43,0-4.82,0.15-7.1,0.44c-1.21,0.14-2.41,0.33-3.62,0.56
		c-0.07,0.01-0.15,0.03-0.22,0.04c-1.01,0.19-2.08,0.43-3.26,0.73c-5.49,1.4-10.74,3.61-15.61,6.59
		c-7.84,4.79-14.49,11.44-19.23,19.26c-5.43,8.92-8.3,19.2-8.3,29.72v25.36c0,1.69,0.66,3.28,1.85,4.48
		c1.19,1.18,2.78,1.84,4.48,1.84h15.64c0.16,0,0.32,0.01,0.48,0.02c0.76,0.06,1.51,0.12,2.23,0.19c0.08,0.01,0.15,0.01,0.22,0.02
		c17.11,1.65,25.85,6.08,32.23,9.32c4.72,2.39,7.83,3.97,12.93,3.97h42.15c5.12,0,8.24-1.58,12.97-3.98
		c6.71-3.4,15.89-8.06,34.56-9.53c0.16-0.01,0.31-0.02,0.47-0.02h17.48c0.83,0,1.63-0.16,2.37-0.46c2.41-0.98,3.96-3.28,3.96-5.86
		v-25.36c0-11.62-3.46-22.81-10-32.36c-3.74-5.45-8.32-10.17-13.63-14.03c-7-5.1-15.19-8.58-23.67-10.07
		c-3.26-0.58-5.44-3.69-4.87-6.95c0.58-3.26,3.68-5.44,6.95-4.87c10.27,1.81,20.17,6.03,28.64,12.19
		c6.41,4.66,11.96,10.36,16.47,16.95c7.92,11.55,12.1,25.08,12.1,39.14v25.36c0,7.49-4.48,14.15-11.42,16.97
		c-2.18,0.89-4.51,1.35-6.91,1.35h-17.24c-16.15,1.3-23.42,4.99-29.85,8.25C249.78,351.14,244.72,353.7,236.74,353.7z"/>
	<path class="st3" d="M222.11,290.43c0,3.84-3.12,6.96-6.96,6.96c-0.31,0-0.62-0.02-0.92-0.07c-3.41-0.44-6.04-3.36-6.04-6.89
		c0-3.45,2.52-6.33,5.83-6.86c0.37-0.07,0.74-0.1,1.13-0.1C218.99,283.47,222.11,286.59,222.11,290.43z"/>
	<path class="st3" d="M222.11,310.57c0,3.85-3.12,6.96-6.96,6.96c-0.86,0-1.68-0.16-2.44-0.45c-2.64-0.98-4.52-3.52-4.52-6.51
		c0-3.53,2.63-6.45,6.04-6.89c0.3-0.05,0.61-0.07,0.92-0.07C218.99,303.61,222.11,306.73,222.11,310.57z"/>
	
		<ellipse transform="matrix(0.2298 -0.9732 0.9732 0.2298 -156.1562 464.1326)" class="st3" cx="215.15" cy="330.72" rx="6.96" ry="6.96"/>
</g>
<path class="st1" d="M148.73,334.37"/>
<path class="st1" d="M127.68,263.66"/>
<path class="st1" d="M166.18,235.11"/>
<path class="st1" d="M174,233.64"/>
<path class="st1" d="M161.16,129.88"/>
</svg>
