<?xml version="1.0" encoding="utf-8"?>
<!-- Generator: Adobe Illustrator 24.1.2, SVG Export Plug-In . SVG Version: 6.00 Build 0)  -->
<svg version="1.1" id="Warstwa_3" xmlns="http://www.w3.org/2000/svg" xmlns:xlink="http://www.w3.org/1999/xlink" x="0px" y="0px"
	 viewBox="0 0 430 430" style="enable-background:new 0 0 430 430;" xml:space="preserve">
<style type="text/css">
	.st0{fill:#fe5224;}
	.st1{fill:#fe5224;}
	.st2{fill:none;}
	.st3{fill:#fe5224;fill-opacity:0;}
</style>
<g>
	<path class="st0" d="M349,256.83H81c-3.48,0-6.3-2.82-6.3-6.3V115.04c0-3.48,2.82-6.3,6.3-6.3h268c3.48,0,6.3,2.82,6.3,6.3v135.49
		C355.3,254.01,352.48,256.83,349,256.83z M87.3,244.23h255.4V121.34H87.3V244.23z"/>
	<path class="st1" d="M401.99,346.23H28c-2.22,0-4.27-1.16-5.41-3.07L8.62,319.81c-0.07-0.11-0.13-0.22-0.19-0.33
		c-0.73-1.38-0.9-2.93-0.57-4.36c0,0,0,0,0-0.01c0,0,0,0,0,0c0.03-0.15,0.07-0.3,0.12-0.44c0,0,0,0,0-0.01c0,0,0,0,0,0
		c0.32-1.02,0.9-1.97,1.71-2.73l40.04-39.08V90.07c0-3.48,2.82-6.3,6.3-6.3h317.93c3.48,0,6.3,2.82,6.3,6.3v182.77l40.04,39.08
		c0.82,0.76,1.4,1.71,1.71,2.74c0,0,0,0,0,0c0,0,0,0,0,0.01c0.04,0.14,0.08,0.28,0.11,0.42c0,0,0,0.01,0,0.01c0,0,0,0,0,0
		c0,0,0,0.01,0,0.01c0,0,0,0,0,0c0.33,1.43,0.16,2.98-0.58,4.36c-0.06,0.11-0.12,0.21-0.18,0.32l-13.98,23.35
		C406.25,345.06,404.2,346.23,401.99,346.23z M31.57,333.63h366.85l6.47-10.8H25.11L31.57,333.63z M29.47,310.23h371.05
		l-29.12-28.42L58.09,282.3L29.47,310.23z M62.34,269.2h305.33V96.37H62.34V269.2z"/>
</g>
</svg>
