<svg xmlns="http://www.w3.org/2000/svg" viewBox="0 0 430 430">
  <defs>
    <style>
      .cls-1 {
        isolation: isolate;
      }

      .cls-2, .cls-3 {
        fill: #b26836;
      }

      .cls-3 {
        mix-blend-mode: multiply;
        opacity: 0.5;
      }

      .cls-4 {
        fill: #3a3347;
      }
    </style>
  </defs>
  <g class="cls-1">
    <g id="Warstwa_1" data-name="Warstwa 1">
      <g>
        <path class="cls-2" d="M361.69,132.46V297a3,3,0,0,1-1.63,2.66L216.38,374.4a3,3,0,0,1-2.77,0L69.93,299.68A3,3,0,0,1,68.31,297V132.46a2.88,2.88,0,0,1,.47-1.59A2.91,2.91,0,0,1,70,129.79l144-74.2a3,3,0,0,1,2.75,0l143.35,74.2A3,3,0,0,1,361.69,132.46Z"/>
        <path class="cls-3" d="M213.38,206.07a3,3,0,0,1,1.62,2.66v166a3.06,3.06,0,0,1-1.38-.34L69.93,299.68A3,3,0,0,1,68.32,297V132.46a3,3,0,0,1,.46-1.59Z"/>
        <path class="cls-4" d="M271.54,268.19l-11-11a6,6,0,0,0-8.49,0l-10.21,10.22a6,6,0,0,0,8.46,8.51v39.49a6,6,0,1,0,12,0V275.9l.77.77a6,6,0,0,0,8.48-8.48Z"/>
      </g>
    </g>
  </g>
</svg>
